<svg width="20" height="20" viewBox="0 0 20 20" fill="none" xmlns="http://www.w3.org/2000/svg">
<g clip-path="url(#clip0_66_26458)">
<path d="M5.85487 0.067768C4.78913 0.117569 4.06204 0.286892 3.42459 0.535896C2.76722 0.79486 2.20945 1.13351 1.65168 1.69127C1.09391 2.24904 0.755263 2.80681 0.496299 3.46418C0.247295 4.10163 0.0879325 4.82872 0.0381317 5.89446C-0.00170898 6.9602 -0.00170898 7.29884 -0.00170898 10.018C-0.00170898 12.7371 0.0182113 13.0757 0.0680121 14.1415C0.117813 15.2072 0.287136 15.9343 0.53614 16.5718C0.795104 17.2291 1.13375 17.7869 1.69152 18.3447C2.24929 18.9024 2.80706 19.2411 3.46443 19.4901C4.10188 19.7391 4.82897 19.9084 5.89471 19.9482C6.96044 19.998 7.29909 20.008 10.0182 19.998C12.7373 19.998 13.076 19.9781 14.1417 19.9283C15.2075 19.8785 15.9345 19.7092 16.572 19.4602C17.2294 19.2012 17.7871 18.8626 18.3449 18.3048C18.9027 17.7471 19.2413 17.1893 19.4903 16.5319C19.7393 15.8945 19.9087 15.1674 19.9485 14.1016C19.9983 13.0359 20.0083 12.6973 19.9983 9.97813C19.9983 7.259 19.9784 6.92036 19.9286 5.85462C19.8788 4.78888 19.7094 4.06179 19.4604 3.42434C19.2015 2.76697 18.8628 2.2092 18.3051 1.65143C17.7473 1.09366 17.1895 0.755019 16.5322 0.506015C15.8947 0.257011 15.1676 0.0876883 14.1019 0.0478477C13.0361 -0.00195312 12.6975 -0.00195312 9.97837 -0.00195312C7.25925 -0.00195312 6.9206 0.0179672 5.85487 0.067768ZM5.97439 18.1455C4.99829 18.1056 4.4704 17.9363 4.1218 17.8068C3.65367 17.6275 3.32498 17.4084 2.96642 17.0598C2.61781 16.7112 2.39869 16.3825 2.21941 15.9144C2.07996 15.5658 1.9206 15.0279 1.8708 14.0618C1.821 13.006 1.81104 12.6873 1.80108 10.018C1.80108 7.34865 1.80108 7.02992 1.85088 5.97414C1.89072 4.99805 2.06004 4.47016 2.18953 4.12155C2.36881 3.65343 2.58793 3.32474 2.93654 2.96617C3.28514 2.61757 3.61383 2.39845 4.08196 2.21916C4.43056 2.07972 4.95845 1.92036 5.93455 1.87056C6.99032 1.82076 7.30905 1.8108 9.97837 1.80084C12.6477 1.80084 12.9664 1.80084 14.0222 1.85064C14.9983 1.89048 15.5262 2.04984 15.8748 2.18928C16.3429 2.36856 16.6716 2.58769 17.0302 2.93629C17.3788 3.2849 17.5979 3.61358 17.7772 4.08171C17.9166 4.43032 18.076 4.95821 18.1258 5.9343C18.1756 6.99008 18.1855 7.3088 18.1955 9.97813C18.1955 12.6475 18.1955 12.9662 18.1457 14.022C18.1059 14.998 17.9465 15.5259 17.8071 15.8845C17.6278 16.3526 17.4086 16.6813 17.06 17.0399C16.7114 17.3885 16.3828 17.6076 15.9146 17.7869C15.566 17.9263 15.0381 18.0857 14.062 18.1355C13.0063 18.1853 12.6875 18.1953 10.0182 18.2052C7.34889 18.2052 7.03016 18.2052 5.97439 18.1554M14.1318 4.64944C14.1318 5.31677 14.6696 5.84466 15.3369 5.84466C16.0043 5.84466 16.5322 5.30681 16.5322 4.63948C16.5322 3.97215 15.9943 3.44426 15.327 3.44426C14.6596 3.44426 14.1318 3.98211 14.1318 4.64944ZM4.86881 10.008C4.86881 12.8467 7.17957 15.1375 10.0182 15.1375C12.8569 15.1375 15.1477 12.8267 15.1477 9.98809C15.1477 7.14944 12.8369 4.8586 9.99829 4.8586C7.15965 4.8586 4.86881 7.16936 4.86881 10.008ZM6.66164 10.008C6.66164 8.16538 8.1457 6.67135 9.98833 6.67135C11.831 6.67135 13.325 8.15542 13.325 9.99805C13.325 11.8407 11.8409 13.3347 9.99829 13.3347C8.15566 13.3347 6.66164 11.8506 6.66164 10.008Z" fill="#333333"/>
</g>
<defs>
<clipPath id="clip0_66_26458">
<rect width="20.0035" height="20.0035" fill="white" transform="translate(-0.00170898 -0.00195312)"/>
</clipPath>
</defs>
</svg>
