<svg width="16" height="18" viewBox="0 0 16 18" fill="none" xmlns="http://www.w3.org/2000/svg">
<path d="M8.8584 0.965732L14.8618 6.96908C15.0869 7.19421 15.1994 7.49437 15.1994 7.79454C15.1994 8.13223 15.0869 8.4324 14.8618 8.65752C14.4115 9.1453 13.6236 9.1453 13.1733 8.65752L9.19609 4.71783L9.19609 16.1992C9.19609 16.8746 8.6708 17.3999 7.99542 17.3999C7.35756 17.3999 6.79475 16.8746 6.79475 16.1992L6.79475 4.71783L2.85505 8.65752C2.4048 9.1453 1.61686 9.1453 1.16661 8.65752C0.678838 8.20727 0.678838 7.41933 1.16661 6.96908L7.16996 0.965732C7.62021 0.47796 8.40815 0.47796 8.8584 0.965732Z" fill="#898989"/>
</svg>
