<svg width="12" height="10" viewBox="0 0 12 10" fill="none" xmlns="http://www.w3.org/2000/svg">
<path d="M10.6934 5.87402L6.78711 9.78027C6.64062 9.92676 6.44531 10 6.25 10C6.03027 10 5.83496 9.92676 5.68848 9.78027C5.37109 9.4873 5.37109 8.97461 5.68848 8.68164L8.25195 6.09375H0.78125C0.341797 6.09375 0 5.75195 0 5.3125C0 4.89746 0.341797 4.53125 0.78125 4.53125H8.25195L5.68848 1.96777C5.37109 1.6748 5.37109 1.16211 5.68848 0.869141C5.98145 0.551758 6.49414 0.551758 6.78711 0.869141L10.6934 4.77539C11.0107 5.06836 11.0107 5.58105 10.6934 5.87402Z" fill="white"/>
</svg>
