<svg width="17" height="20" viewBox="0 0 17 20" fill="none" xmlns="http://www.w3.org/2000/svg">
<path d="M14.4648 4.00667C13.4121 3.30667 12.6602 2.18 12.4182 0.873333C12.3659 0.593333 12.3398 0.3 12.3398 0H8.98555V13.78C8.92671 15.32 7.6844 16.56 6.16748 16.56C5.69671 16.56 5.25209 16.44 4.85979 16.2267C3.96402 15.74 3.3494 14.78 3.3494 13.6667C3.3494 12.0733 4.61132 10.7733 6.16748 10.7733C6.45517 10.7733 6.73632 10.82 6.99786 10.9067V7.39333C6.72325 7.35333 6.44863 7.33333 6.16748 7.33333C2.76748 7.34 0.00170898 10.18 0.00170898 13.6733C0.00170898 15.8133 1.04132 17.7067 2.63671 18.8533C3.63709 19.5733 4.85979 20 6.17402 20C9.57402 20 12.3398 17.16 12.3398 13.6733V6.68667C13.654 7.65333 15.2625 8.22667 17.0017 8.22667V4.78667C16.0667 4.78667 15.1971 4.5 14.4648 4.01333V4.00667Z" fill="#333333"/>
</svg>
