<svg width="6" height="11" viewBox="0 0 6 11" fill="none" xmlns="http://www.w3.org/2000/svg">
<path d="M1.53912 0.846445L5.61981 4.92719C5.69631 5.00307 5.757 5.09332 5.7985 5.19276C5.83994 5.29226 5.86125 5.39888 5.86125 5.50663C5.86125 5.61438 5.83994 5.72101 5.7985 5.82051C5.757 5.91995 5.69631 6.0102 5.61981 6.08607L1.53912 10.1668C1.46319 10.2433 1.37294 10.304 1.27356 10.3454C1.17406 10.3869 1.06744 10.4082 0.959688 10.4082C0.851938 10.4082 0.74525 10.3869 0.64575 10.3454C0.546375 10.304 0.456125 10.2433 0.380188 10.1668C0.30375 10.0909 0.243 10.0006 0.201562 9.9012C0.160062 9.80176 0.13875 9.69501 0.13875 9.58732C0.13875 9.47963 0.160062 9.37294 0.201562 9.27345C0.243 9.17407 0.30375 9.08376 0.380188 9.00788L3.88963 5.50663L0.380188 2.00538C0.2265 1.8517 0.140188 1.64326 0.140188 1.42595C0.140188 1.31832 0.161375 1.21176 0.2025 1.11232C0.24375 1.01288 0.304125 0.92257 0.380188 0.846445C0.533875 0.692758 0.742313 0.606445 0.959688 0.606445C1.06731 0.606445 1.17381 0.627633 1.27325 0.66882C1.37269 0.710008 1.46306 0.770383 1.53912 0.846445Z" fill="#333"/>
</svg>
