<svg width="184" height="28" viewBox="0 0 184 28" fill="none" xmlns="http://www.w3.org/2000/svg">
<path fill-rule="evenodd" clip-rule="evenodd" d="M4.96311 0H6.85414L11.6978 11.0597H9.67409L8.48639 8.4601H3.34413L2.37539 11.0597H0L4.96311 0ZM5.84559 2.64542L4.13372 6.5939H7.77643L5.84559 2.64542ZM15.6038 16.6973H24.747V18.6944H21.2039V27.9337H19.1403V18.6944H15.6038V16.6973ZM17.8811 9.13446L17.8843 9.13447H17.8777L17.8811 9.13446ZM18.2161 8.99696C18.124 9.08781 18.0059 9.13364 17.8811 9.13446C17.7626 9.13364 17.638 9.08781 17.5459 8.99696C17.3601 8.81362 17.3601 8.51895 17.5459 8.33561L23.7896 2.17388C23.9754 1.99054 24.274 1.99054 24.4598 2.17388C24.6456 2.35723 24.6456 2.65189 24.4598 2.83524L18.2161 8.99696ZM1.10549 25.6948L1.10872 25.6948H1.10208L1.10549 25.6948ZM1.44048 25.5573C1.34842 25.6481 1.2303 25.694 1.10549 25.6948C0.987015 25.694 0.862379 25.6481 0.770323 25.5573C0.584538 25.3739 0.584538 25.0793 0.770323 24.8959L7.01403 18.7342C7.19981 18.5509 7.49839 18.5509 7.68418 18.7342C7.86996 18.9176 7.86996 19.2122 7.68418 19.3956L1.44048 25.5573ZM81.4869 17.5029L86.4566 6.44324H88.3476L93.1847 17.5029H91.161L89.9733 14.9033H84.831L83.8623 17.5029H81.4869ZM87.3325 9.08866L85.6206 13.0371H89.2633L87.3325 9.08866ZM149.574 6.44324L144.604 17.5029H146.979L147.948 14.9033H153.09L154.278 17.5029H156.302L151.465 6.44324H149.574ZM148.738 13.0371L150.45 9.08866L152.38 13.0371H148.738ZM40.1952 8.35503H36.6587V6.35787H45.8019V8.35503H42.2587V17.5943H40.1952V8.35503ZM57.9291 11.1314H52.7404V6.35787H50.6304V17.5943H52.7404V12.9518H57.9291V17.5943H60.0391V6.35787H57.9291V11.1314ZM73.2696 12.9323H67.8222V15.6825H74.1455V17.5945H67.8222H65.5795V15.6825V12.9323V11.0203V8.27009V6.35805V6.31222H67.8222V6.35805H73.973V8.27009H67.8222V11.0203H73.2696V12.9323ZM111.622 8.35503H115.159V17.5943H117.222V8.35503H120.765V6.35787H111.622V8.35503ZM95.4713 22.4335H93.912V21.556H97.9396V22.4335H96.3803V26.4998H95.4713V22.4335ZM107.152 10.0054C107.152 7.61534 104.75 6.47598 103.582 6.47598C101.054 6.47598 97.8497 6.44324 97.8497 6.44324V17.588H99.9597V13.6723H102.368L105.142 17.588H107.696L104.744 13.3842C105.42 13.1746 107.159 12.2972 107.159 9.99884L107.152 10.0054ZM103.417 11.9109H99.953L99.9995 8.39456H103.204C103.947 8.39456 105.095 8.65648 105.095 10.2018C105.095 11.7472 103.755 11.9109 103.417 11.9109ZM130.816 6.35787L134.32 11.5177L137.83 6.35787H139.906V17.5943H137.83V10.1557L134.32 15.034L130.816 10.1557V17.5943H128.739V6.35787H130.816ZM177.67 15.7086V12.9518H183.124V11.0463H177.67V8.28961H183.827V6.37757H177.67V6.33828H175.427V6.37757V8.28961V11.0463V12.9518V15.7086V17.614H177.67H184V15.7086H177.67ZM168.349 6.44312H170.837H170.844L166.153 11.3149L171.162 17.5879H168.615L164.806 12.7293L163.074 14.3663V17.6076H161.024V6.3318H163.074V11.8387C164.381 10.4898 168.349 6.44312 168.349 6.44312ZM112.998 21.5954H112.992L112.998 21.5888V21.5954ZM112.992 21.5954L110.935 23.73L113.138 26.4868H112.016L110.344 24.3521L109.588 25.0724V26.4999H108.686V21.543H109.588V23.9658C110.159 23.3764 111.904 21.5954 111.904 21.5954H112.992ZM122.396 24.0315C122.396 22.6171 123.558 21.4712 124.991 21.4712C126.424 21.4712 127.585 22.6171 127.585 24.0315C127.585 25.4459 126.424 26.5918 124.991 26.5918C123.558 26.5918 122.396 25.4459 122.396 24.0315ZM123.425 24.0315C123.425 24.8827 124.128 25.5768 124.991 25.5768C125.853 25.5768 126.557 24.8827 126.557 24.0315C126.557 23.1802 125.853 22.4862 124.991 22.4862C124.128 22.4862 123.425 23.1802 123.425 24.0315ZM103.011 21.4712C101.577 21.4712 100.416 22.6171 100.416 24.0315C100.416 25.4459 101.577 26.5918 103.011 26.5918C104.444 26.5918 105.605 25.4459 105.605 24.0315C105.605 22.6171 104.444 21.4712 103.011 21.4712ZM103.011 25.5768C102.148 25.5768 101.445 24.8827 101.445 24.0315C101.445 23.1802 102.148 22.4862 103.011 22.4862C103.873 22.4862 104.577 23.1802 104.577 24.0315C104.577 24.8827 103.873 25.5768 103.011 25.5768ZM116.292 21.6082L117.54 23.4351L118.794 21.6082H119.995L118.064 24.3649V26.4472H116.995V24.4238L115.071 21.6082H116.292Z" fill="#333333"/>
</svg>
