<svg width="12" height="10" viewBox="0 0 12 10" fill="none" xmlns="http://www.w3.org/2000/svg">
<path d="M1.30664 5.38184L5.21289 9.28809C5.35938 9.43457 5.55469 9.50781 5.75 9.50781C5.96973 9.50781 6.16504 9.43457 6.31152 9.28809C6.62891 8.99512 6.62891 8.48242 6.31152 8.18945L3.74805 5.60156H11.2188C11.6582 5.60156 12 5.25977 12 4.82031C12 4.40527 11.6582 4.03906 11.2188 4.03906H3.74805L6.31152 1.47559C6.62891 1.18262 6.62891 0.669922 6.31152 0.376953C6.01855 0.0595703 5.50586 0.0595703 5.21289 0.376953L1.30664 4.2832C0.989258 4.57617 0.989258 5.08887 1.30664 5.38184Z" fill="white"/>
</svg>
