<svg width="30" height="30" viewBox="0 0 30 30" fill="none" xmlns="http://www.w3.org/2000/svg">
<path d="M29.2538 13.0259C29.2538 6.38564 22.6913 0.983398 14.6269 0.983398C6.56248 0.983398 0 6.38564 0 13.0259C0 18.9822 5.20561 23.9602 12.2289 24.9039C12.7068 25.0078 13.3554 25.2242 13.5175 25.6398C13.6626 26.012 13.6114 26.6007 13.5687 26.9817C13.5687 26.9817 13.398 28.0292 13.3639 28.2543C13.3042 28.6266 13.0737 29.7174 14.6269 29.0508C16.1886 28.3842 23.0497 24.0208 26.1219 20.4367C28.2383 18.0818 29.2538 15.6837 29.2538 13.0259Z" fill="white"/>
<path d="M24.3895 16.8617H20.2762C20.1226 16.8617 19.9946 16.7319 19.9946 16.576V10.1089C19.9946 9.94445 20.1226 9.82324 20.2762 9.82324H24.3895C24.5431 9.82324 24.6711 9.9531 24.6711 10.1089V11.1651C24.6711 11.321 24.5431 11.4508 24.3895 11.4508H21.599V12.5417H24.3895C24.5431 12.5417 24.6711 12.6715 24.6711 12.8274V13.8836C24.6711 14.0394 24.5431 14.1693 24.3895 14.1693H21.599V15.2601H24.3895C24.5431 15.2601 24.6711 15.39 24.6711 15.5458V16.602C24.6711 16.7578 24.5431 16.8877 24.3895 16.8877V16.8617Z" fill="#927c5c"/>
<path d="M9.1908 16.8615C9.3444 16.8615 9.47241 16.7316 9.47241 16.5758V15.5196C9.47241 15.3637 9.3444 15.2339 9.1908 15.2339H6.40025V10.0914C6.40025 9.93553 6.27224 9.80566 6.11863 9.80566H5.07751C4.92391 9.80566 4.7959 9.93553 4.7959 10.0914V16.5585C4.7959 16.723 4.92391 16.8442 5.07751 16.8442H9.1908V16.8615Z" fill="#927c5c"/>
<path d="M11.6572 9.81445H10.6246C10.4691 9.81445 10.343 9.94236 10.343 10.1001V16.5673C10.343 16.725 10.4691 16.8529 10.6246 16.8529H11.6572C11.8127 16.8529 11.9388 16.725 11.9388 16.5673V10.1001C11.9388 9.94236 11.8127 9.81445 11.6572 9.81445Z" fill="#927c5c"/>
<path d="M18.7233 9.81445H17.6822C17.5286 9.81445 17.4005 9.94431 17.4005 10.1001V13.9441L14.482 9.94431C14.482 9.94431 14.4649 9.927 14.4564 9.91834C14.4564 9.91834 14.4479 9.90969 14.4393 9.90103C14.4393 9.90103 14.4308 9.89237 14.4223 9.88371C14.4223 9.88371 14.4137 9.88371 14.4052 9.87505C14.4052 9.87505 14.4052 9.87505 14.3967 9.87505C14.3967 9.87505 14.3881 9.87505 14.3796 9.87505C14.3796 9.87505 14.3796 9.87505 14.3711 9.87505C14.3711 9.87505 14.3625 9.87505 14.354 9.87505C14.354 9.87505 14.354 9.87505 14.3455 9.87505C14.3455 9.87505 14.3369 9.87505 14.3284 9.87505C14.3284 9.87505 14.3284 9.87505 14.3199 9.87505C14.3199 9.87505 14.3113 9.87505 14.3028 9.87505C14.3028 9.87505 14.3028 9.87505 14.2943 9.87505C14.2943 9.87505 14.2857 9.87505 14.2772 9.87505C14.2772 9.87505 14.2687 9.87505 14.2601 9.87505C14.2601 9.87505 14.2601 9.87505 14.2516 9.87505H13.219C13.0654 9.87505 12.9374 10.0049 12.9374 10.1608V16.6365C12.9374 16.7923 13.0654 16.9222 13.219 16.9222H14.2601C14.4137 16.9222 14.5417 16.7923 14.5417 16.6365V12.7926L17.4688 16.801C17.4688 16.801 17.5115 16.8529 17.5371 16.8703C17.5371 16.8703 17.5456 16.8703 17.5542 16.8789C17.5542 16.8789 17.5627 16.8789 17.5712 16.8789C17.5712 16.8789 17.5798 16.8789 17.5883 16.8789C17.5883 16.8789 17.5883 16.8789 17.5968 16.8789C17.5968 16.8789 17.6054 16.8789 17.6139 16.8789C17.6395 16.8789 17.6651 16.8876 17.6907 16.8876H18.7233C18.8769 16.8876 19.0049 16.7577 19.0049 16.6019V10.1261C19.0049 9.97029 18.8769 9.84043 18.7233 9.84043V9.81445Z" fill="#927c5c"/>
</svg>
