<svg xmlns="http://www.w3.org/2000/svg" width="16" height="16" fill="none"><path fill="#F4F4F4" d="M7.535.547c3.263-.183 5.717 2.94 4.889 6.154-.106.412-.268.765-.456 1.14-1.197 2.393-2.623 4.676-3.832 7.064-.165.394-.52.393-.684 0-1.21-2.388-2.635-4.67-3.832-7.063-.282-.564-.482-1.075-.57-1.71C2.65 3.29 4.724.705 7.535.548Zm.198 2.433C6.03 3.025 4.92 4.832 5.606 6.42c.753 1.744 3.14 1.96 4.178.37 1.076-1.647-.118-3.86-2.051-3.81Z"/><path fill="#333" d="M7.739 2.981c1.934-.05 3.128 2.163 2.051 3.81-1.038 1.59-3.424 1.374-4.178-.371-.686-1.587.424-3.394 2.127-3.44v.001Z"/></svg>